<svg xmlns="http://www.w3.org/2000/svg" viewBox="0 0 40 40" fill="none">
  <defs>
    <linearGradient id="paint0_linear_129_993" x1="0" y1="0" x2="1" y2="1">
      <stop offset="0%" stop-color="#ff7e5f" />
      <stop offset="100%" stop-color="#feb47b" />
    </linearGradient>
  </defs>
  <path d="M37.9122 10.7634C36.7157 8.52155 32.9528 8.94764 32.3807 11.4878C31.7203 14.477 30.8245 17.4104 29.664 20.239C28.438 23.0742 26.9407 25.7979 25.0806 28.2659C19.1437 36.1486 10.7222 36.4927 11.5526 24.7916C14.9427 23.7756 17.872 21.5533 19.7321 18.4953C21.4092 15.7356 22.6352 11.5435 19.8008 9.07874C17.9766 7.41699 15.1422 7.45305 13.1545 8.82309C9.56817 11.4222 7.79299 15.67 6.433 19.8097C5.30185 20.0129 4.15763 20.1341 3.01341 20.2325C2.19937 20.3013 1.47034 20.5242 0.875345 21.1207C-0.281954 22.2384 -0.301569 24.2967 0.875345 25.4111C2.07841 26.709 3.86994 26.2108 5.41627 26.0568C5.05339 38.6133 16.2635 44.4442 25.9338 36.0961C31.7399 31.1273 35.1628 23.8804 37.3107 16.6533C37.3858 16.4009 37.4447 16.1453 37.5068 15.8896C37.9253 14.2115 38.8014 12.3891 37.9122 10.7634Z" fill="url(#paint0_linear_129_993)"></path>
</svg>