<svg xmlns="http://www.w3.org/2000/svg" xmlns:xlink="http://www.w3.org/1999/xlink" viewBox="0,0,256,256" width="48px" height="48px" fill-rule="nonzero"><g fill="none" fill-rule="nonzero" stroke="none" stroke-width="1" stroke-linecap="butt" stroke-linejoin="miter" stroke-miterlimit="10" stroke-dasharray="" stroke-dashoffset="0" font-family="none" font-weight="none" font-size="none" text-anchor="none" style="mix-blend-mode: normal"><g transform="scale(5.33333,5.33333)"><path d="M40.3,15.7c0.6,-1.7 1.2,-5 -0.4,-8.7c-4.5,0 -8.3,3.2 -8.9,3.8c-2.2,-0.5 -4.6,-0.7 -7,-0.7c-2.5,0 -4.9,0.3 -7.2,0.8c-3.1,-3.2 -7.2,-3.9 -8.8,-3.9c0,0 -0.9,1.8 -0.9,5c0,2 0.5,3.2 0.8,3.8c-2.4,2.5 -3.9,5.9 -3.9,10.3c0,11.2 7.1,15 20,15c12.9,0 20,-3.8 20,-15c0,-4.6 -1.4,-8 -3.7,-10.4z" fill="#5aa69a"></path><path d="M24,39c-8.2,0 -15,-1.4 -15,-9c0,-2.9 1.6,-4.5 2.7,-5.5c2.5,-2.2 6.7,-1.2 12.3,-1.2c4.1,0 7.6,-0.7 10.4,0.2c2.8,0.9 4.6,3.5 4.6,6.3c0,7.9 -4,9.2 -15,9.2z" fill="#ffccbc"></path><path d="M25,34c0,0.6 -0.4,1 -1,1c-0.6,0 -1,-0.4 -1,-1c0,-0.6 0.4,-1 1,-1c0.6,0 1,0.4 1,1zM26.5,36.5c0.2,-0.2 0.2,-0.5 0,-0.7c-0.2,-0.2 -0.5,-0.2 -0.7,0c-0.9,0.9 -2.6,0.9 -3.5,0c-0.2,-0.2 -0.5,-0.2 -0.7,0c-0.2,0.2 -0.2,0.5 0,0.7c0.7,0.7 1.5,1 2.5,1c1,0 1.7,-0.4 2.4,-1z" fill="#000000"></path><path d="M19,29.5c0,2.5 -1.3,4.5 -3,4.5c-1.7,0 -3,-2 -3,-4.5c0,-2.5 1.3,-4.5 3,-4.5c1.7,0 3,2 3,4.5zM32,25c-1.7,0 -3,2 -3,4.5c0,2.5 1.3,4.5 3,4.5c1.7,0 3,-2 3,-4.5c0,-2.5 -1.3,-4.5 -3,-4.5z" fill="#ffffff"></path><path d="M34,30c0,1.7 -0.9,3 -2,3c-1.1,0 -2,-1.3 -2,-3c0,-0.2 0,-0.5 0.1,-0.7c0.1,0.4 0.5,0.7 0.9,0.7c0.6,0 1,-0.4 1,-1c0,-0.6 -0.4,-1 -1,-1c-0.2,0 -0.4,0.1 -0.6,0.2c0.4,-0.7 0.9,-1.2 1.6,-1.2c1.1,0 2,1.3 2,3zM16,27c-0.7,0 -1.2,0.5 -1.6,1.2c0.2,-0.1 0.4,-0.2 0.6,-0.2c0.6,0 1,0.4 1,1c0,0.6 -0.4,1 -1,1c-0.4,0 -0.8,-0.3 -0.9,-0.7c0,0.2 -0.1,0.5 -0.1,0.7c0,1.7 0.9,3 2,3c1.1,0 2,-1.3 2,-3c0,-1.7 -0.9,-3 -2,-3z" fill="#000000"></path></g></g></svg>